<?xml version="1.0" standalone="no"?>
<!DOCTYPE svg PUBLIC "-//W3C//DTD SVG 20010904//EN"
 "http://www.w3.org/TR/2001/REC-SVG-20010904/DTD/svg10.dtd">
<svg version="1.0" xmlns="http://www.w3.org/2000/svg"
 width="256.000000pt" height="256.000000pt" viewBox="0 0 256.000000 256.000000"
 preserveAspectRatio="xMidYMid meet">

<g transform="translate(0.000000,256.000000) scale(0.100000,-0.100000)"
fill="#000000" stroke="none">
<path d="M1144 2505 c-366 -56 -673 -324 -769 -670 -23 -83 -31 -286 -15 -383
45 -279 298 -734 657 -1181 138 -172 209 -240 257 -248 38 -6 40 -5 133 92
146 153 388 483 548 750 127 211 222 440 246 595 14 93 6 273 -16 355 -9 33
-36 102 -61 154 -143 303 -418 498 -764 541 -100 12 -111 12 -216 -5z m309
-101 c243 -54 466 -236 571 -466 89 -193 88 -409 -3 -656 -100 -273 -406 -733
-670 -1004 -36 -38 -70 -68 -76 -68 -13 0 -113 102 -186 190 -244 292 -475
660 -554 880 -85 239 -91 443 -18 630 92 233 324 435 571 495 80 19 276 19
365 -1z"/>
<path d="M1137 2334 c-142 -31 -247 -87 -344 -186 -76 -78 -126 -160 -157
-258 -78 -247 -12 -491 212 -780 81 -104 299 -322 374 -374 54 -36 57 -37 84
-23 49 26 224 189 314 292 160 183 245 315 294 455 38 111 47 260 21 374 -48
218 -209 397 -422 471 -131 46 -254 55 -376 29z m245 -316 c21 -6 37 -16 35
-23 -3 -6 -45 -138 -93 -293 l-89 -282 -35 6 c-19 4 -38 9 -41 13 -16 14 153
591 173 591 6 0 28 -5 50 -12z m-262 -112 c-1 -6 -55 -51 -121 -100 -66 -49
-116 -92 -112 -96 4 -4 54 -40 110 -79 57 -40 106 -77 109 -82 6 -11 -42 -79
-55 -79 -10 0 -325 231 -332 243 -2 4 73 66 166 136 l170 128 33 -30 c17 -17
32 -36 32 -41z m570 -65 l160 -123 -172 -129 c-94 -71 -176 -129 -182 -129
-17 0 -69 71 -60 79 5 5 62 45 127 91 64 46 117 86 117 89 -1 3 -46 40 -101
81 -55 41 -105 81 -111 87 -8 10 -3 23 17 49 15 19 31 34 36 32 5 -2 81 -59
169 -127z"/>
</g>
</svg>
